# xmcd
#
# Track frame offsets: 
#        150
#        11720
#        23836
#        38248
#        49223
#        63525
#        76028
#        90485
#        104859
#        119482
#        132563
#        145760
#        159229
#        174709
#        189410
#        204681
#        219045
#        232804
#        245040
#        254472
#
# Disc length: 3552 seconds
#
# Revision: 0
# Processed by: cddbd v1.5.2PL0 Copyright (c) Steve Scherf et al.
# Submitted via: ExactAudioCopy v1.0b3
#
DISCID=190dde14
DTITLE=Various Artist - Blues Mania
DYEAR=1900
DGENRE=Blues
TTITLE0=Louis Armstrong - Love walked in
TTITLE1=Louis Jordan and His Orchestra - Caldonia
TTITLE2=Margaret Whiting, Billy Butterfield and His Orchestra - Moonligh
TTITLE2=t in Vermont
TTITLE3=Nat King Cole - Straighten up and fly right
TTITLE4=Perry Como - Till the end of the time
TTITLE5=Sidney Bechet - Blues in the air
TTITLE6=Al. Bowly, Lew Stone and His Orchestra - How could we be wrong?
TTITLE7=Art. Tatum - Liza
TTITLE8=Artie Shaw and His Orchestra - The man I love
TTITLE9=Bessie Smith - Foolish man blues
TTITLE10=Count Basie - How long, how long blues
TTITLE11=Dizzy Gillespie - Woody "N'You
TTITLE12=Duke Ellington and His Orchestra - Concerto for Cootie
TTITLE13=Billie Holiday - Embraceable you
TTITLE14=Ella Fitzgerald - One side of me
TTITLE15=Frank Sinatra - I'll never smile again
TTITLE16=Fred Aster - They can't take that away from me
TTITLE17=J. Christy, S.Kenton and His Orchestra - Tampico
TTITLE18=Kay Starr - Them there eyes
TTITLE19=Ted Weems Orchestra - Heartaches
EXTD=
EXTT0=
EXTT1=
EXTT2=
EXTT3=
EXTT4=
EXTT5=
EXTT6=
EXTT7=
EXTT8=
EXTT9=
EXTT10=
EXTT11=
EXTT12=
EXTT13=
EXTT14=
EXTT15=
EXTT16=
EXTT17=
EXTT18=
EXTT19=
PLAYORDER=
